<svg width="132" height="23" viewBox="0 0 132 23" fill="none" xmlns="http://www.w3.org/2000/svg">
<rect width="132" height="23" fill="white"/>
<path d="M0 0H132C127.252 11 126.777 11 132 23H0V0Z" fill="#27AE60" fill-opacity="0.9"/>
<path d="M20.5059 16H19.375V8.39453H15.168V16H14.043V7.46875H20.5059V16ZM27.7422 12.9004C27.7422 13.8652 27.5215 14.6426 27.0801 15.2324C26.6387 15.8223 26.041 16.1172 25.2871 16.1172C24.5176 16.1172 23.9121 15.873 23.4707 15.3848V18.4375H22.3867V9.66016H23.377L23.4297 10.3633C23.8711 9.81641 24.4844 9.54297 25.2695 9.54297C26.0312 9.54297 26.6328 9.83008 27.0742 10.4043C27.5195 10.9785 27.7422 11.7773 27.7422 12.8008V12.9004ZM26.6582 12.7773C26.6582 12.0625 26.5059 11.498 26.2012 11.084C25.8965 10.6699 25.4785 10.4629 24.9473 10.4629C24.291 10.4629 23.7988 10.7539 23.4707 11.3359V14.3652C23.7949 14.9434 24.291 15.2324 24.959 15.2324C25.4785 15.2324 25.8906 15.0273 26.1953 14.6172C26.5039 14.2031 26.6582 13.5898 26.6582 12.7773ZM33.2266 9.66016H34.3105V16H33.2266V11.377L30.3027 16H29.2188V9.66016H30.3027V14.2891L33.2266 9.66016ZM36.1504 16V9.66016H38.623C39.4668 9.66016 40.1133 9.80859 40.5625 10.1055C41.0156 10.3984 41.2422 10.8301 41.2422 11.4004C41.2422 11.6934 41.1543 11.959 40.9785 12.1973C40.8027 12.4316 40.543 12.6113 40.1992 12.7363C40.582 12.8262 40.8887 13.002 41.1191 13.2637C41.3535 13.5254 41.4707 13.8379 41.4707 14.2012C41.4707 14.7832 41.2559 15.2285 40.8262 15.5371C40.4004 15.8457 39.7969 16 39.0156 16H36.1504ZM37.2344 13.2168V15.127H39.0273C39.4805 15.127 39.8184 15.043 40.041 14.875C40.2676 14.707 40.3809 14.4707 40.3809 14.166C40.3809 13.5332 39.916 13.2168 38.9863 13.2168H37.2344ZM37.2344 12.3496H38.6348C39.6504 12.3496 40.1582 12.0527 40.1582 11.459C40.1582 10.8652 39.6777 10.5586 38.7168 10.5391H37.2344V12.3496ZM45.5371 16.1172C44.6777 16.1172 43.9785 15.8359 43.4395 15.2734C42.9004 14.707 42.6309 13.9512 42.6309 13.0059V12.8066C42.6309 12.1777 42.75 11.6172 42.9883 11.125C43.2305 10.6289 43.5664 10.2422 43.9961 9.96484C44.4297 9.68359 44.8984 9.54297 45.4023 9.54297C46.2266 9.54297 46.8672 9.81445 47.3242 10.3574C47.7812 10.9004 48.0098 11.6777 48.0098 12.6895V13.1406H43.7148C43.7305 13.7656 43.9121 14.2715 44.2598 14.6582C44.6113 15.041 45.0566 15.2324 45.5957 15.2324C45.9785 15.2324 46.3027 15.1543 46.5684 14.998C46.834 14.8418 47.0664 14.6348 47.2656 14.377L47.9277 14.8926C47.3965 15.709 46.5996 16.1172 45.5371 16.1172ZM45.4023 10.4336C44.9648 10.4336 44.5977 10.5938 44.3008 10.9141C44.0039 11.2305 43.8203 11.6758 43.75 12.25H46.9258V12.168C46.8945 11.6172 46.7461 11.1914 46.4805 10.8906C46.2148 10.5859 45.8555 10.4336 45.4023 10.4336ZM52.7559 11.3945C52.7559 11.0977 52.6426 10.8633 52.416 10.6914C52.1895 10.5156 51.8789 10.4277 51.4844 10.4277C51.1016 10.4277 50.7812 10.5273 50.5234 10.7266C50.2695 10.9258 50.1426 11.1602 50.1426 11.4297H49.0645C49.0645 10.8789 49.2949 10.4277 49.7559 10.0762C50.2168 9.72461 50.793 9.54883 51.4844 9.54883C52.2266 9.54883 52.8047 9.70898 53.2188 10.0293C53.6328 10.3457 53.8398 10.7988 53.8398 11.3887C53.8398 11.6738 53.7539 11.9355 53.582 12.1738C53.4102 12.4121 53.166 12.6016 52.8496 12.7422C53.5879 12.9922 53.957 13.4844 53.957 14.2188C53.957 14.8008 53.7324 15.2617 53.2832 15.6016C52.834 15.9414 52.2344 16.1113 51.4844 16.1113C50.7539 16.1113 50.1504 15.9336 49.6738 15.5781C49.2012 15.2188 48.9648 14.7344 48.9648 14.125H50.043C50.043 14.4336 50.1797 14.6992 50.4531 14.9219C50.7305 15.1406 51.0742 15.25 51.4844 15.25C51.8984 15.25 52.2324 15.1543 52.4863 14.9629C52.7402 14.7715 52.8672 14.5234 52.8672 14.2188C52.8672 13.8633 52.7598 13.6094 52.5449 13.457C52.334 13.3008 52.0039 13.2227 51.5547 13.2227H50.4707V12.3086H51.6484C52.3867 12.2891 52.7559 11.9844 52.7559 11.3945ZM57.9941 16.1172C57.1348 16.1172 56.4355 15.8359 55.8965 15.2734C55.3574 14.707 55.0879 13.9512 55.0879 13.0059V12.8066C55.0879 12.1777 55.207 11.6172 55.4453 11.125C55.6875 10.6289 56.0234 10.2422 56.4531 9.96484C56.8867 9.68359 57.3555 9.54297 57.8594 9.54297C58.6836 9.54297 59.3242 9.81445 59.7812 10.3574C60.2383 10.9004 60.4668 11.6777 60.4668 12.6895V13.1406H56.1719C56.1875 13.7656 56.3691 14.2715 56.7168 14.6582C57.0684 15.041 57.5137 15.2324 58.0527 15.2324C58.4355 15.2324 58.7598 15.1543 59.0254 14.998C59.291 14.8418 59.5234 14.6348 59.7227 14.377L60.3848 14.8926C59.8535 15.709 59.0566 16.1172 57.9941 16.1172ZM57.8594 10.4336C57.4219 10.4336 57.0547 10.5938 56.7578 10.9141C56.4609 11.2305 56.2773 11.6758 56.207 12.25H59.3828V12.168C59.3516 11.6172 59.2031 11.1914 58.9375 10.8906C58.6719 10.5859 58.3125 10.4336 57.8594 10.4336ZM65.377 14.5645L67.5332 9.66016H68.8867V16H67.8027V11.3887L65.752 16H65.002L62.9102 11.2891V16H61.8262V9.66016H63.2324L65.377 14.5645ZM76.1523 15.2324C76.5391 15.2324 76.877 15.1152 77.166 14.8809C77.4551 14.6465 77.6152 14.3535 77.6465 14.002H78.6719C78.6523 14.3652 78.5273 14.7109 78.2969 15.0391C78.0664 15.3672 77.7578 15.6289 77.3711 15.8242C76.9883 16.0195 76.582 16.1172 76.1523 16.1172C75.2891 16.1172 74.6016 15.8301 74.0898 15.2559C73.582 14.6777 73.3281 13.8887 73.3281 12.8887V12.707C73.3281 12.0898 73.4414 11.541 73.668 11.0605C73.8945 10.5801 74.2188 10.207 74.6406 9.94141C75.0664 9.67578 75.5684 9.54297 76.1465 9.54297C76.8574 9.54297 77.4473 9.75586 77.916 10.1816C78.3887 10.6074 78.6406 11.1602 78.6719 11.8398H77.6465C77.6152 11.4297 77.459 11.0938 77.1777 10.832C76.9004 10.5664 76.5566 10.4336 76.1465 10.4336C75.5957 10.4336 75.168 10.6328 74.8633 11.0312C74.5625 11.4258 74.4121 11.998 74.4121 12.748V12.9531C74.4121 13.6836 74.5625 14.2461 74.8633 14.6406C75.1641 15.0352 75.5938 15.2324 76.1523 15.2324ZM82.5215 16.1172C81.6621 16.1172 80.9629 15.8359 80.4238 15.2734C79.8848 14.707 79.6152 13.9512 79.6152 13.0059V12.8066C79.6152 12.1777 79.7344 11.6172 79.9727 11.125C80.2148 10.6289 80.5508 10.2422 80.9805 9.96484C81.4141 9.68359 81.8828 9.54297 82.3867 9.54297C83.2109 9.54297 83.8516 9.81445 84.3086 10.3574C84.7656 10.9004 84.9941 11.6777 84.9941 12.6895V13.1406H80.6992C80.7148 13.7656 80.8965 14.2715 81.2441 14.6582C81.5957 15.041 82.041 15.2324 82.5801 15.2324C82.9629 15.2324 83.2871 15.1543 83.5527 14.998C83.8184 14.8418 84.0508 14.6348 84.25 14.377L84.9121 14.8926C84.3809 15.709 83.584 16.1172 82.5215 16.1172ZM82.3867 10.4336C81.9492 10.4336 81.582 10.5938 81.2852 10.9141C80.9883 11.2305 80.8047 11.6758 80.7344 12.25H83.9102V12.168C83.8789 11.6172 83.7305 11.1914 83.4648 10.8906C83.1992 10.5859 82.8398 10.4336 82.3867 10.4336ZM90.3496 10.5566H87.4258V16H86.3359V9.66016H90.3496V10.5566ZM90.8887 12.7715C90.8887 12.1504 91.0098 11.5918 91.252 11.0957C91.498 10.5996 91.8379 10.2168 92.2715 9.94727C92.709 9.67773 93.207 9.54297 93.7656 9.54297C94.6289 9.54297 95.3262 9.8418 95.8574 10.4395C96.3926 11.0371 96.6602 11.832 96.6602 12.8242V12.9004C96.6602 13.5176 96.541 14.0723 96.3027 14.5645C96.0684 15.0527 95.7305 15.4336 95.2891 15.707C94.8516 15.9805 94.3477 16.1172 93.7773 16.1172C92.918 16.1172 92.2207 15.8184 91.6855 15.2207C91.1543 14.623 90.8887 13.832 90.8887 12.8477V12.7715ZM91.9785 12.9004C91.9785 13.6035 92.1406 14.168 92.4648 14.5938C92.793 15.0195 93.2305 15.2324 93.7773 15.2324C94.3281 15.2324 94.7656 15.0176 95.0898 14.5879C95.4141 14.1543 95.5762 13.5488 95.5762 12.7715C95.5762 12.0762 95.4102 11.5137 95.0781 11.084C94.75 10.6504 94.3125 10.4336 93.7656 10.4336C93.2305 10.4336 92.7988 10.6465 92.4707 11.0723C92.1426 11.498 91.9785 12.1074 91.9785 12.9004ZM97.5449 15.1152L97.9199 14.6523C98.3418 14.1055 98.582 13.2852 98.6406 12.1914L98.7402 9.66016H102.824V15.1152H103.639V17.8633H102.555V16H98.1309V17.8633H97.0469L97.0527 15.1152H97.5449ZM98.8281 15.1152H101.74V10.6621H99.7891L99.7246 12.1738C99.6582 13.4355 99.3594 14.416 98.8281 15.1152ZM110.02 16H108.936V13.293H106.023V16H104.934V9.66016H106.023V12.4082H108.936V9.66016H110.02V16ZM116.611 9.66016V16H115.521V13.5332H113.887L112.393 16H111.221L112.814 13.3691C112.408 13.2207 112.096 12.9922 111.877 12.6836C111.662 12.3711 111.555 12.0078 111.555 11.5938C111.555 11.0156 111.771 10.5508 112.205 10.1992C112.639 9.84375 113.219 9.66406 113.945 9.66016H116.611ZM112.645 11.6055C112.645 11.9141 112.75 12.1641 112.961 12.3555C113.172 12.543 113.451 12.6387 113.799 12.6426H115.521V10.5391H113.963C113.561 10.5391 113.24 10.6387 113.002 10.8379C112.764 11.0332 112.645 11.2891 112.645 11.6055Z" fill="white"/>
</svg>
