<svg width="59" height="17" viewBox="0 0 59 17" fill="none" xmlns="http://www.w3.org/2000/svg">
<path d="M8.11707 9.68376H9.48697V10.7078H8.11707V13H6.85568V10.7078H2.35943V9.96859L6.78108 3.12588H8.11707V9.68376ZM3.78358 9.68376H6.85568V4.84164L6.70648 5.11291L3.78358 9.68376ZM16.9943 3.83117L12.9049 13H11.5893L15.6651 4.15669H10.3211V3.12588H16.9943V3.83117ZM24.6101 8.78858C24.6101 10.2579 24.3592 11.3498 23.8573 12.0641C23.3555 12.7785 22.5711 13.1356 21.5041 13.1356C20.4507 13.1356 19.6708 12.7875 19.1644 12.0913C18.6581 11.3905 18.3958 10.3461 18.3778 8.95812V7.28305C18.3778 5.83177 18.6287 4.75348 19.1305 4.04819C19.6324 3.34289 20.419 2.99024 21.4905 2.99024C22.553 2.99024 23.3352 3.33159 23.837 4.01428C24.3388 4.69244 24.5965 5.74134 24.6101 7.16098V8.78858ZM23.3555 7.07281C23.3555 6.01035 23.2063 5.23724 22.9079 4.75348C22.6095 4.2652 22.1371 4.02106 21.4905 4.02106C20.8485 4.02106 20.3806 4.26294 20.0867 4.7467C19.7929 5.23046 19.6414 5.97418 19.6324 6.97787V8.98525C19.6324 10.0522 19.7861 10.8412 20.0935 11.3521C20.4055 11.8584 20.8757 12.1116 21.5041 12.1116C22.1235 12.1116 22.5824 11.872 22.8808 11.3927C23.1837 10.9135 23.3419 10.1585 23.3555 9.12766V7.07281ZM32.409 8.78858C32.409 10.2579 32.1581 11.3498 31.6563 12.0641C31.1544 12.7785 30.37 13.1356 29.303 13.1356C28.2496 13.1356 27.4697 12.7875 26.9634 12.0913C26.457 11.3905 26.1948 10.3461 26.1767 8.95812V7.28305C26.1767 5.83177 26.4276 4.75348 26.9294 4.04819C27.4313 3.34289 28.218 2.99024 29.2895 2.99024C30.3519 2.99024 31.1341 3.33159 31.6359 4.01428C32.1378 4.69244 32.3955 5.74134 32.409 7.16098V8.78858ZM31.1544 7.07281C31.1544 6.01035 31.0052 5.23724 30.7068 4.75348C30.4084 4.2652 29.936 4.02106 29.2895 4.02106C28.6475 4.02106 28.1795 4.26294 27.8857 4.7467C27.5918 5.23046 27.4403 5.97418 27.4313 6.97787V8.98525C27.4313 10.0522 27.585 10.8412 27.8924 11.3521C28.2044 11.8584 28.6746 12.1116 29.303 12.1116C29.9224 12.1116 30.3813 11.872 30.6797 11.3927C30.9826 10.9135 31.1409 10.1585 31.1544 9.12766V7.07281Z" fill="#272727"/>
<line y1="9.8" x2="59" y2="9.8" stroke="black" stroke-width="0.4"/>
<path d="M35.961 6.44922V10.9298H35.3335V11.5699H35.961V12.85H36.5886V11.5699H38.4711V10.9298H36.5886V9.96966H38.9418C39.8912 9.96966 40.6675 9.17788 40.6675 8.20944C40.6675 7.241 39.8912 6.44922 38.9418 6.44922H35.961ZM36.5886 7.0893H38.9418C39.5518 7.0893 40.04 7.58728 40.04 8.20944C40.04 8.8316 39.5518 9.32958 38.9418 9.32958H36.5886V7.0893Z" fill="#272727"/>
<path d="M42.7103 13.1882H42.1306L44.3475 7.42342H44.9236L42.7103 13.1882ZM48.2418 8.78714V12.1818H49.6857V8.78714H50.3603V12.1818H51.8005V8.78714H52.4787V12.7324H47.5635V8.78714H48.2418ZM56.4751 9.33408H55.1515V12.7324H54.4769V9.33408H53.1788V8.78714H56.4751V9.33408Z" fill="#272727"/>
</svg>
